# xmcd
#
# Track frame offsets:
#	150
#	13836
#	31640
#	49145
#	63844
#	79710
#	95632
#	113386
#	130854
#	143713
#	161077
#	176941
#	191111
#	198791
#	216708
#	231409
#	252148
#	259447
#	270813
#	288964
#	309989
#
# Disc length: 4373 seconds
#
# Revision: 1
# Processed by: cddbd v1.5.2PL0 Copyright (c) Steve Scherf et al.
# Submitted via: audiograbber 1.83.01
#
DISCID=2b111315
DTITLE=Various Artist - Dirt Beneath The Daydream
DYEAR=2009
DGENRE=Electronic
TTITLE0=Rory Storm - 3'06"
TTITLE1=Eye - Skeleton Key
TTITLE2=Crude - Blackened, Deadened Keys
TTITLE3=Greg Malcolm - Lost
TTITLE4=The Futurians - Galaxy Marbles
TTITLE5=Rosy Parlane - Armenia
TTITLE6=Adam Willetts - Bad Milk
TTITLE7=Omit - Dropper
TTITLE8=Alex MacKinnon - Piano Coalescence
TTITLE9=Richard Neave and Lee Noyes - Was Ever Women By This Fashion Woo'd, Was E
TTITLE9=ver Women By This Fashion Won 
TTITLE10=Damian Stewart - Forever Soup
TTITLE11=Kraus - Let Me Eat Cake
TTITLE12=Witcyst - New World
TTITLE13=LA Lakers - Cough Genesis Ramparts For Gulf Eurythmics
TTITLE14=Bruce Russell - The Role Of Minority Tendencies In The Ebbing Period (
TTITLE14=Edit)
TTITLE15=Sandoz Lab Technicians - Festival Of Vapours
TTITLE16=Rachel Shearer - Pastoral
TTITLE17=Demarnia Lloyd and Stuart Harris - Long Ride
TTITLE18=Sam Hamilton - Blue Tide, Black Water (Pop Edit)
TTITLE19=Stanier Black-Five - Aerial Argot
TTITLE20=Currer Bells - Three Volumes
EXTD=
EXTT0=
EXTT1=
EXTT2=
EXTT3=
EXTT4=
EXTT5=
EXTT6=
EXTT7=
EXTT8=
EXTT9=
EXTT10=
EXTT11=
EXTT12=
EXTT13=
EXTT14=
EXTT15=
EXTT16=
EXTT17=
EXTT18=
EXTT19=
EXTT20=
PLAYORDER=
